<svg width="600" height="600" viewBox="0 0 600 600" fill="none" xmlns="http://www.w3.org/2000/svg">
<rect width="600" height="600" fill="#0D0D0D"/>
<path d="M369.533 230.547C391.31 237.92 413.014 251.365 429.927 266.878C456.172 290.95 475.698 324.172 477.117 360.393C478.001 382.698 471.428 404.966 455.973 421.517C436.838 442.008 410.086 448.648 383.026 449.527C398.548 415.798 401.681 371.423 391.677 335.741C391.09 366.826 389.592 396.199 379.941 426.019C372.129 450.559 357.297 475.091 335.023 488.945C334.525 489.26 334.023 489.57 333.517 489.873C333.011 490.176 332.502 490.473 331.988 490.764C331.475 491.054 330.959 491.338 330.439 491.616C329.918 491.894 329.395 492.165 328.868 492.43C328.341 492.695 327.811 492.953 327.277 493.204C326.744 493.456 326.208 493.701 325.668 493.939C325.129 494.177 324.586 494.408 324.041 494.633C323.496 494.858 322.948 495.076 322.397 495.287C321.847 495.498 321.294 495.702 320.738 495.9C320.182 496.097 319.624 496.287 319.064 496.471C318.503 496.654 317.94 496.83 317.376 497C316.811 497.169 316.244 497.332 315.675 497.487C315.106 497.642 314.536 497.791 313.963 497.932C313.391 498.073 312.816 498.207 312.24 498.334C311.664 498.461 311.087 498.58 310.508 498.693C309.929 498.806 309.349 498.911 308.768 499.009C308.186 499.107 307.604 499.198 307.02 499.281C306.436 499.365 305.851 499.441 305.266 499.51C304.68 499.58 304.093 499.642 303.506 499.696C302.919 499.75 302.332 499.797 301.744 499.837C301.155 499.877 300.566 499.91 299.977 499.935C299.388 499.96 298.799 499.978 298.209 499.989C297.619 499.999 297.03 500.002 296.44 499.998C295.85 499.994 295.261 499.983 294.671 499.964C294.082 499.945 293.493 499.919 292.904 499.886C292.315 499.853 291.727 499.812 291.139 499.764C290.552 499.716 289.965 499.661 289.378 499.598C288.792 499.535 288.206 499.466 287.621 499.388C287.037 499.311 286.454 499.227 285.871 499.135C285.288 499.043 284.707 498.944 284.127 498.838C283.547 498.732 282.968 498.619 282.391 498.498C281.814 498.377 281.238 498.25 280.664 498.115C255.22 492.121 237.132 474.432 223.918 452.819C229.173 452.576 234.454 451.955 239.664 451.25C280.367 445.741 319.666 429.392 345.072 395.916C372.509 359.763 377.974 312.397 374.414 268.384C373.384 255.651 371.279 243.178 369.533 230.547Z" fill="#E7F0F3"/>
<path d="M195.28 154.645C198.459 154.194 201.861 154.363 205.076 154.307C201.925 161.031 199.012 167.857 196.336 174.785C182.089 212.539 178.379 253.567 195.481 291.064C219.424 343.562 273.634 372.032 325.103 391.32C293.52 418.688 250.253 434.797 208.423 432.82C179.081 431.433 151.529 420.347 131.629 398.453C124.815 390.309 119.528 381.084 116.41 370.904C108.199 344.094 115.828 317.432 128.53 293.533C150.821 325.304 186.936 347.566 223.675 358.415C206.892 348.786 190.571 338.69 175.516 326.478C148.377 304.464 122.364 273.828 118.785 237.681C116.886 218.506 122.144 199.204 134.457 184.241C149.732 165.677 171.992 157.026 195.28 154.645Z" fill="#E7F0F3"/>
<path d="M305.115 100.548C313.111 99.3431 322.388 100.249 330.186 102.059C357.281 108.346 376.644 128.193 390.793 151.072C352.06 156.684 315.956 172.852 287.933 200.572C309.146 188.689 330.263 177.5 353.632 170.328C384.075 160.986 419.939 157.507 449.023 173.078C449.544 173.351 450.063 173.63 450.579 173.916C451.091 174.202 451.6 174.494 452.107 174.793C452.614 175.091 453.117 175.396 453.615 175.708C454.113 176.018 454.609 176.335 455.102 176.659C455.596 176.982 456.082 177.312 456.562 177.647C457.047 177.983 457.526 178.324 458.001 178.672C458.477 179.019 458.947 179.372 459.413 179.731C459.879 180.091 460.341 180.455 460.798 180.826C461.255 181.197 461.707 181.573 462.155 181.954C462.603 182.336 463.046 182.723 463.484 183.116C463.919 183.509 464.35 183.907 464.78 184.31C465.209 184.714 465.632 185.123 466.048 185.537C466.468 185.951 466.882 186.37 467.288 186.794C467.695 187.219 468.097 187.648 468.495 188.083C468.892 188.517 469.283 188.956 469.667 189.4C470.055 189.844 470.437 190.293 470.811 190.746C471.186 191.199 471.554 191.657 471.915 192.12C472.28 192.583 472.639 193.05 472.991 193.522C473.342 193.993 473.687 194.469 474.026 194.949C474.364 195.429 474.697 195.913 475.026 196.402C475.355 196.89 475.677 197.383 475.993 197.879C476.308 198.375 476.616 198.876 476.918 199.38C477.224 199.884 477.521 200.392 477.809 200.903C478.101 201.415 478.387 201.93 478.666 202.448C478.94 202.967 479.209 203.489 479.474 204.014C479.739 204.539 479.998 205.068 480.249 205.6C480.5 206.131 480.747 206.666 480.989 207.203C481.227 207.741 481.457 208.282 481.681 208.826C481.905 209.369 482.124 209.915 482.339 210.464C482.549 211.013 482.753 211.565 482.949 212.119C483.146 212.673 483.338 213.23 483.525 213.788C483.708 214.347 483.884 214.908 484.053 215.471C491.592 240.482 485.211 265.072 473.258 287.381L469.454 281.866C466.585 277.885 463.612 273.981 460.537 270.155C435.008 238.762 401.248 214.591 360.096 210.466C302.317 204.672 250.548 237.617 207.807 272.618L206.917 265.745C201.501 222.204 209.489 176.494 237.008 141.314C254.065 119.508 277.331 103.939 305.115 100.548Z" fill="#E7F0F3"/>
<path d="M334.408 300.074C334.408 319 319.065 334.343 300.139 334.343C281.213 334.343 265.87 319 265.87 300.074C265.87 281.148 281.213 265.806 300.139 265.806C319.065 265.806 334.408 281.148 334.408 300.074Z" fill="#E7F0F3"/>
</svg>
