<?xml version="1.0" standalone="no"?>
<!DOCTYPE svg PUBLIC "-//W3C//DTD SVG 20010904//EN"
 "http://www.w3.org/TR/2001/REC-SVG-20010904/DTD/svg10.dtd">
<svg version="1.0" xmlns="http://www.w3.org/2000/svg"
 width="565.000000pt" height="565.000000pt" viewBox="0 0 565.000000 565.000000"
 preserveAspectRatio="xMidYMid meet">
<metadata>
Created by potrace 1.14, written by Peter Selinger 2001-2017
</metadata>
<g transform="translate(0.000000,565.000000) scale(0.100000,-0.100000)"
fill="#000000" stroke="none">
<path d="M2062 5078 c-16 -16 -15 -25 3 -25 8 0 15 4 15 9 0 4 5 8 10 8 24 0
8 -31 -19 -36 -24 -5 -30 -12 -35 -44 -3 -21 -1 -51 4 -66 8 -21 7 -32 -5 -51
-9 -13 -20 -21 -25 -18 -5 3 -12 -7 -15 -22 -9 -40 -21 -58 -36 -56 -8 2 -19
-7 -24 -20 -7 -14 -18 -21 -32 -20 -18 2 -27 -8 -45 -47 -13 -28 -28 -50 -35
-50 -6 0 -15 -9 -18 -20 -4 -11 -10 -18 -13 -16 -4 2 -6 -14 -4 -37 3 -40 2
-41 -11 -18 -14 23 -15 22 -21 -33 -5 -37 -12 -56 -19 -53 -7 2 -12 12 -12 23
0 12 -6 18 -18 16 -9 -2 -17 1 -18 5 0 4 -2 16 -4 26 -3 13 0 15 9 8 10 -8 12
-3 12 23 -1 31 -3 32 -20 21 -10 -8 -24 -11 -31 -9 -7 3 -15 -5 -19 -20 -3
-14 -10 -26 -14 -26 -12 0 -29 14 -36 30 -3 8 -4 2 -1 -15 12 -63 13 -70 14
-77 1 -5 7 -8 14 -8 16 0 40 -47 32 -60 -3 -5 -21 0 -41 10 -43 25 -44 25 -44
0 0 -12 5 -17 13 -14 7 2 23 -9 35 -25 14 -19 28 -28 37 -25 8 4 15 1 15 -5 0
-6 -4 -11 -10 -11 -5 0 -7 -7 -4 -15 4 -8 14 -15 23 -15 10 0 8 -5 -9 -13 -21
-11 -27 -11 -36 2 -7 8 -10 20 -8 26 3 6 -7 22 -22 35 l-26 25 7 -24 c16 -51
42 -86 64 -87 26 -2 42 -21 34 -41 -5 -12 -7 -12 -14 -2 -16 27 -19 1 -3 -31
16 -31 16 -35 -2 -68 -10 -20 -19 -41 -19 -48 0 -6 -29 -60 -65 -120 -62 -104
-150 -300 -150 -336 0 -23 24 -13 37 15 6 12 18 42 28 67 26 69 73 161 105
205 15 22 50 75 76 117 26 43 55 80 64 83 8 3 26 23 40 45 23 38 25 39 33 18
6 -16 4 -26 -7 -33 -23 -18 -4 -31 34 -24 19 3 27 7 17 8 -10 0 -15 5 -12 11
3 6 26 8 52 4 32 -3 49 -1 54 8 4 7 11 9 16 4 4 -4 0 -12 -10 -17 -21 -12 -22
-29 -1 -29 9 0 14 -6 11 -13 -2 -6 2 -18 9 -25 11 -10 14 -10 14 0 0 8 5 6 11
-4 7 -12 6 -24 -1 -37 -5 -11 -10 -23 -10 -28 1 -4 8 4 16 20 8 15 12 32 9 37
-3 6 -2 10 4 10 5 0 13 -5 16 -10 8 -13 25 -3 25 13 0 8 -3 8 -9 -1 -7 -11
-10 -10 -15 3 -12 31 -7 55 12 54 10 0 12 -3 5 -6 -7 -2 -13 -12 -13 -21 0
-15 2 -15 10 -2 6 10 10 11 10 3 0 -7 7 -13 15 -13 8 0 14 5 12 12 -1 6 6 14
16 16 26 5 20 -11 -10 -30 l-28 -17 28 -1 c30 0 37 -16 10 -23 -10 -2 0 -4 21
-3 22 1 41 7 44 14 2 7 -2 10 -10 7 -9 -4 -14 2 -14 14 0 16 4 18 18 10 10 -5
18 -17 19 -27 0 -14 2 -14 9 3 5 11 9 14 9 8 1 -7 8 -13 16 -13 9 0 15 -7 13
-16 -2 -11 5 -18 20 -19 12 -1 22 3 22 8 0 5 7 7 15 3 8 -3 15 -1 15 4 0 19
16 10 17 -9 1 -12 -7 -21 -21 -25 -19 -5 -23 -13 -23 -43 l0 -38 10 35 c11 41
46 64 65 43 18 -18 28 -16 53 10 18 18 21 19 15 4 -3 -10 1 -28 9 -40 13 -18
15 -19 15 -4 0 9 5 17 11 17 7 0 9 -10 7 -25 -6 -29 6 -33 21 -7 8 13 11 14
11 2 1 -10 4 -9 10 5 8 19 9 19 9 -2 1 -21 21 -45 21 -25 0 15 -29 79 -30 65
0 -7 -7 -10 -15 -7 -25 10 -17 24 15 24 17 0 30 5 30 10 0 6 4 10 9 10 5 0 8
-8 7 -17 0 -10 7 -19 18 -21 14 -3 17 0 13 12 -4 9 -2 16 3 16 6 0 10 -4 10
-9 0 -5 9 -13 20 -16 18 -6 18 -8 5 -21 -8 -9 -15 -24 -15 -35 0 -11 -7 -19
-16 -19 -11 0 -14 5 -9 18 4 9 9 24 12 32 4 13 4 13 -6 0 -7 -10 -11 -11 -11
-2 0 6 -8 12 -17 11 -11 0 -13 -3 -5 -6 13 -5 17 -43 4 -43 -5 0 -14 -12 -20
-26 -11 -22 -10 -25 6 -22 11 2 25 -2 33 -9 12 -10 18 -6 34 18 16 24 25 28
45 24 19 -4 21 -3 10 5 -8 5 -24 10 -35 11 -17 1 -17 2 -2 6 9 2 17 14 17 25
0 15 5 19 20 15 11 -3 20 -1 20 4 0 6 6 4 13 -2 19 -18 18 -47 -1 -52 -10 -3
-6 -5 10 -6 24 -1 26 2 24 32 -2 17 -1 24 1 15 2 -10 12 -18 21 -18 15 0 15
-2 2 -10 -13 -9 -13 -11 0 -20 10 -6 11 -10 3 -10 -7 0 -13 -7 -13 -15 0 -8
-4 -15 -10 -15 -5 0 -9 6 -7 13 1 6 -5 11 -13 9 -8 -2 -22 -4 -32 -5 -9 -1
-16 -4 -16 -7 2 -18 -4 -23 -11 -11 -7 10 -9 7 -8 -12 2 -19 5 -23 15 -15 9 8
12 6 12 -5 0 -18 -33 -40 -44 -30 -3 3 -6 1 -6 -5 0 -15 3 -15 35 0 14 6 25
17 25 25 0 15 26 18 35 3 3 -5 1 -18 -5 -27 -11 -17 -11 -17 -6 0 3 9 1 17 -4
17 -6 0 -10 -9 -10 -20 0 -24 25 -27 34 -4 5 13 9 14 21 4 21 -17 19 4 -1 25
-27 27 -8 28 22 1 17 -15 23 -26 15 -26 -11 0 -11 -3 -1 -15 7 -9 10 -19 6
-22 -4 -4 -10 -3 -14 3 -10 16 -41 13 -35 -3 3 -7 0 -13 -6 -13 -6 0 -11 5
-11 11 0 8 -4 8 -15 -1 -8 -6 -20 -9 -27 -5 -7 4 -6 0 4 -7 16 -14 15 -63 -3
-74 -16 -10 -9 -23 13 -26 12 -2 28 -14 35 -28 8 -15 13 -19 13 -9 0 8 11 25
25 37 27 24 31 18 15 -22 -10 -28 -2 -34 19 -13 9 8 15 8 17 2 4 -11 160 -2
172 10 4 3 0 10 -8 15 -8 6 -10 10 -4 10 5 0 15 -5 20 -10 8 -8 20 -7 40 1 16
6 45 13 64 14 69 6 155 22 185 35 17 8 67 16 113 20 70 5 88 11 127 38 45 32
45 32 98 18 29 -8 75 -22 103 -31 54 -18 137 -38 256 -60 42 -7 85 -19 95 -25
22 -12 231 -80 249 -80 20 0 -18 126 -87 290 -21 51 -126 235 -153 270 -14 17
-13 30 2 113 15 77 -2 172 -40 229 -10 14 -18 30 -18 35 0 4 -9 14 -20 21 -11
7 -20 16 -20 21 0 12 -99 111 -111 111 -11 0 -59 64 -59 78 0 7 -9 12 -19 12
-27 0 -35 17 -14 28 16 9 16 11 -1 37 -10 15 -20 24 -24 20 -4 -3 0 -10 8 -15
8 -5 11 -12 7 -16 -3 -4 -14 -1 -23 7 -9 8 -24 14 -32 14 -21 0 -27 24 -8 31
21 8 10 24 -16 24 -17 0 -19 -4 -14 -25 5 -21 3 -25 -15 -25 -15 0 -19 4 -15
16 5 12 0 15 -26 12 -20 -2 -33 2 -36 11 -3 9 0 12 10 9 20 -8 42 7 33 22 -5
8 -19 10 -41 5 -20 -3 -34 -2 -34 4 0 13 52 49 91 63 18 6 26 13 20 18 -21 13
-64 -1 -153 -47 -25 -13 -32 -12 -60 4 -18 10 -34 21 -36 26 -2 4 -8 7 -13 7
-6 0 -26 11 -46 24 -35 24 -54 24 -83 1 -20 -16 -110 -26 -132 -14 -10 5 -18
17 -18 26 0 14 -2 14 -16 -3 -8 -10 -13 -13 -9 -6 4 7 0 12 -9 12 -10 0 -13 6
-10 15 4 8 15 15 25 15 10 0 19 4 19 8 0 17 -35 8 -60 -15 -28 -26 -42 -28
-72 -12 -11 6 -39 13 -61 16 -22 2 -58 11 -81 18 -45 16 -179 12 -250 -6 -23
-6 -60 -14 -83 -18 -23 -4 -53 -15 -67 -25 -18 -11 -32 -14 -44 -7 -9 5 -30 8
-47 8 l-30 0 28 -11 c21 -8 26 -14 21 -30 -10 -33 -19 -38 -47 -27 -17 7 -27
18 -27 31 0 14 -7 20 -21 20 -12 0 -30 11 -41 25 -28 36 -43 31 -17 -5 37 -49
15 -44 -40 10 -53 51 -93 64 -119 38z m114 -65 c-7 -7 -26 7 -26 19 0 6 6 6
15 -2 9 -7 13 -15 11 -17z m1174 -25 c0 -13 -32 -6 -37 9 -3 7 3 9 16 6 12 -3
21 -10 21 -15z m-1264 -30 c-3 -24 -5 -49 -5 -56 -1 -7 -5 -10 -11 -7 -14 9
-13 78 2 93 19 19 20 15 14 -30z m1637 -165 c-7 -2 -19 -2 -25 0 -7 3 -2 5 12
5 14 0 19 -2 13 -5z m-1888 -182 c3 -5 2 -12 -3 -15 -5 -3 -9 1 -9 9 0 17 3
19 12 6z m-135 -370 c0 -11 -4 -9 -14 4 -8 11 -12 24 -9 28 7 11 23 -12 23
-32z m170 -57 c0 -2 -7 -4 -15 -4 -8 0 -15 4 -15 10 0 5 7 7 15 4 8 -4 15 -8
15 -10z m124 -72 c-6 -4 -14 -14 -17 -22 -4 -10 -6 -8 -6 8 -1 15 5 22 17 22
10 0 13 -3 6 -8z m548 -1 c-8 -5 -12 -17 -10 -27 3 -14 11 -18 33 -17 25 2 27
1 10 -7 -32 -14 -43 -12 -55 11 -14 26 -6 49 17 49 14 0 15 -2 5 -9z m133 -1
c-3 -5 -11 -10 -16 -10 -6 0 -7 5 -4 10 3 6 11 10 16 10 6 0 7 -4 4 -10z
m-455 -22 c0 -6 -6 -5 -15 2 -8 7 -15 14 -15 16 0 2 7 1 15 -2 8 -4 15 -11 15
-16z m90 2 c0 -5 -7 -10 -16 -10 -8 0 -12 5 -9 10 3 6 10 10 16 10 5 0 9 -4 9
-10z m145 0 c-3 -5 -13 -10 -21 -10 -8 0 -12 5 -9 10 3 6 13 10 21 10 8 0 12
-4 9 -10z m-185 -15 c0 -8 -4 -15 -10 -15 -5 0 -10 7 -10 15 0 8 5 15 10 15 6
0 10 -7 10 -15z m65 -6 c-10 -15 -25 -10 -19 6 4 8 10 12 15 9 5 -3 7 -10 4
-15z m355 17 c0 -11 -19 -15 -25 -6 -3 5 1 10 9 10 9 0 16 -2 16 -4z m-20 -42
c0 -22 -26 -16 -27 5 -1 14 3 18 13 14 8 -3 14 -11 14 -19z m50 11 c0 -8 -4
-15 -10 -15 -5 0 -7 7 -4 15 4 8 8 15 10 15 2 0 4 -7 4 -15z m-311 -10 c13 -4
21 -3 18 1 -3 5 7 9 23 9 20 0 26 -4 23 -15 -3 -11 -1 -10 10 3 19 23 26 22
20 -3 -6 -21 -48 -29 -55 -10 -2 7 -14 7 -35 1 -22 -6 -32 -6 -30 1 1 6 -4 13
-10 15 -7 3 -13 -2 -13 -11 0 -18 -25 -22 -36 -4 -4 6 -3 8 3 5 6 -4 16 0 23
9 7 8 18 13 24 11 6 -2 22 -8 35 -12z m205 -31 c3 -8 2 -12 -4 -9 -6 3 -10 10
-10 16 0 14 7 11 14 -7z m-169 -4 c3 -5 1 -10 -4 -10 -6 0 -11 5 -11 10 0 6 2
10 4 10 3 0 8 -4 11 -10z m279 4 c28 -11 17 -20 -19 -16 -19 2 -32 8 -29 13 6
10 26 12 48 3z m76 -4 c0 -5 -4 -10 -10 -10 -5 0 -10 5 -10 10 0 6 5 10 10 10
6 0 10 -4 10 -10z m138 -30 c-7 -11 -15 -15 -17 -9 -2 6 3 15 10 20 20 12 21
11 7 -11z m127 0 c3 -5 1 -10 -4 -10 -6 0 -11 5 -11 10 0 6 2 10 4 10 3 0 8
-4 11 -10z m-22 -14 c4 -10 0 -12 -15 -8 -15 4 -17 7 -6 13 17 11 15 11 21 -5z
m-153 -13 c0 -11 -5 -11 -20 -3 -11 6 -20 12 -20 13 0 2 9 3 20 3 11 0 20 -6
20 -13z m25 -3 c3 -5 1 -10 -4 -10 -6 0 -11 5 -11 10 0 6 2 10 4 10 3 0 8 -4
11 -10z m-62 -17 c-7 -2 -19 -2 -25 0 -7 3 -2 5 12 5 14 0 19 -2 13 -5z m-253
-24 c0 -12 -29 -18 -35 -8 -4 5 -11 7 -16 4 -5 -4 -9 -2 -9 3 0 5 13 9 30 8
16 -1 30 -4 30 -7z m370 -4 c0 -8 -9 -23 -20 -32 -11 -10 -20 -25 -20 -35 0
-10 -5 -18 -11 -18 -14 0 0 42 20 57 15 11 14 12 -1 13 -10 0 -18 5 -18 11 0
5 5 7 10 4 6 -3 10 -1 10 4 0 6 7 11 15 11 8 0 15 -7 15 -15z m-70 -43 c0 -13
-3 -12 -15 4 -19 25 -19 40 0 24 8 -7 15 -20 15 -28z m-210 19 c0 -12 -20 -25
-27 -18 -7 7 6 27 18 27 5 0 9 -4 9 -9z m90 -6 c0 -9 -6 -12 -15 -9 -8 4 -15
10 -15 15 0 5 7 9 15 9 8 0 15 -7 15 -15z m100 -14 c0 -5 -9 -7 -20 -4 -11 3
-20 7 -20 9 0 2 9 4 20 4 11 0 20 -4 20 -9z m110 3 c0 -3 -7 -12 -15 -20 -16
-17 -18 -14 -9 10 6 15 24 23 24 10z m-135 -24 c3 -5 1 -10 -4 -10 -6 0 -11 5
-11 10 0 6 2 10 4 10 3 0 8 -4 11 -10z m179 -7 c-5 -5 -12 -12 -16 -18 -4 -6
-8 -2 -8 8 0 9 7 17 17 17 9 0 12 -3 7 -7z m-214 -7 c0 -2 -7 -7 -16 -10 -8
-3 -12 -2 -9 4 6 10 25 14 25 6z m65 -6 c3 -5 1 -10 -4 -10 -6 0 -11 5 -11 10
0 6 2 10 4 10 3 0 8 -4 11 -10z m15 -24 c0 -3 -4 -8 -10 -11 -5 -3 -10 -1 -10
4 0 6 5 11 10 11 6 0 10 -2 10 -4z m-172 -73 c-6 -7 -18 -13 -27 -12 -10 0
-12 2 -3 6 6 2 10 8 8 12 -3 4 4 7 14 7 14 0 16 -3 8 -13z m52 -17 c0 -3 -4
-8 -10 -11 -5 -3 -10 -1 -10 4 0 6 5 11 10 11 6 0 10 -2 10 -4z m80 -16 c0 -5
-4 -10 -10 -10 -5 0 -10 5 -10 10 0 6 5 10 10 10 6 0 10 -4 10 -10z m110 0 c0
-5 -2 -10 -4 -10 -3 0 -8 5 -11 10 -3 6 -1 10 4 10 6 0 11 -4 11 -10z m-230
-36 c0 -2 -7 -4 -15 -4 -8 0 -15 4 -15 10 0 5 7 7 15 4 8 -4 15 -8 15 -10z"/>
<path d="M3835 4801 c-3 -6 4 -15 15 -21 20 -11 21 -10 10 9 -12 23 -16 25
-25 12z"/>
<path d="M1557 4506 c-3 -8 0 -16 6 -19 7 -3 13 3 13 14 0 22 -12 25 -19 5z"/>
<path d="M1780 4149 c0 -5 5 -7 10 -4 6 3 10 8 10 11 0 2 -4 4 -10 4 -5 0 -10
-5 -10 -11z"/>
<path d="M1755 4101 c-3 -5 -2 -12 3 -15 5 -3 9 1 9 9 0 17 -3 19 -12 6z"/>
<path d="M1906 4085 c-3 -9 0 -15 9 -15 9 0 12 -6 9 -15 -4 -8 -1 -15 5 -15 6
0 11 -7 11 -15 0 -9 6 -12 16 -8 11 4 12 8 4 13 -7 5 -9 13 -5 20 5 9 4 11 -3
6 -7 -4 -12 -2 -12 4 0 6 -6 18 -14 25 -12 12 -15 12 -20 0z"/>
<path d="M1868 4083 c7 -3 16 -2 19 1 4 3 -2 6 -13 5 -11 0 -14 -3 -6 -6z"/>
<path d="M1817 4066 c-7 -17 15 -27 33 -16 10 6 8 11 -8 19 -15 8 -21 7 -25
-3z"/>
<path d="M1891 4024 c0 -11 3 -14 6 -6 3 7 2 16 -1 19 -3 4 -6 -2 -5 -13z"/>
<path d="M2013 4013 c-6 -14 4 -33 17 -33 5 0 7 7 4 15 -4 9 0 15 9 15 9 0 18
-8 20 -17 4 -16 5 -16 6 1 1 12 6 16 17 12 9 -3 12 -2 9 5 -4 6 -13 8 -21 5
-8 -3 -14 -1 -14 4 0 13 -42 8 -47 -7z"/>
<path d="M1703 4005 c0 -8 4 -12 9 -9 4 3 8 9 8 15 0 5 -4 9 -8 9 -5 0 -9 -7
-9 -15z"/>
<path d="M1836 4013 c6 -4 14 -15 17 -23 5 -11 6 -9 4 4 -1 11 -9 21 -17 23
-10 3 -11 2 -4 -4z"/>
<path d="M2120 4010 c0 -5 5 -10 11 -10 5 0 7 5 4 10 -3 6 -8 10 -11 10 -2 0
-4 -4 -4 -10z"/>
<path d="M2146 3984 c-12 -31 3 -34 22 -4 10 16 10 20 -2 20 -8 0 -17 -7 -20
-16z"/>
<path d="M2198 3973 c6 -2 18 -2 25 0 6 3 1 5 -13 5 -14 0 -19 -2 -12 -5z"/>
<path d="M2294 3969 c-3 -6 2 -18 12 -27 17 -16 17 -16 5 0 -7 9 -10 22 -6 28
3 5 4 10 1 10 -3 0 -8 -5 -12 -11z"/>
<path d="M2650 3950 c0 -5 4 -10 9 -10 6 0 13 5 16 10 3 6 -1 10 -9 10 -9 0
-16 -4 -16 -10z"/>
<path d="M2220 3940 c0 -5 5 -10 10 -10 6 0 10 5 10 10 0 6 -4 10 -10 10 -5 0
-10 -4 -10 -10z"/>
<path d="M2580 3779 c0 -5 5 -7 10 -4 6 3 10 8 10 11 0 2 -4 4 -10 4 -5 0 -10
-5 -10 -11z"/>
<path d="M2636 3765 c-9 -26 -7 -32 5 -12 6 10 9 21 6 23 -2 3 -7 -2 -11 -11z"/>
<path d="M3511 3721 c-31 -33 -44 -41 -63 -36 -13 3 -39 -1 -58 -9 -46 -19
-191 -56 -227 -58 -15 0 -47 -7 -69 -14 -23 -7 -51 -10 -62 -7 -11 2 -47 -5
-79 -16 -35 -12 -86 -21 -124 -22 -55 0 -60 -2 -36 -11 15 -5 27 -14 27 -20 0
-6 -7 -7 -15 -4 -9 3 -18 -1 -21 -9 -4 -8 -10 -15 -16 -15 -5 0 -7 4 -3 9 3 5
1 12 -4 16 -6 3 -8 12 -4 21 5 12 -9 14 -93 9 -55 -3 -122 -6 -151 -8 -28 -1
-55 -5 -58 -9 -4 -4 -23 -1 -43 7 -27 12 -38 12 -49 3 -11 -9 -26 -6 -67 11
-50 20 -56 21 -132 8 -69 -13 -75 -15 -49 -22 55 -14 150 -47 161 -56 6 -4 37
-11 70 -15 57 -6 152 -35 204 -61 39 -20 97 -17 109 6 15 27 65 43 87 27 10
-8 15 -20 11 -29 -6 -17 31 -31 57 -21 9 3 16 1 16 -6 0 -6 5 -8 10 -5 6 3 10
14 10 23 0 10 9 23 20 30 18 11 22 10 29 -10 5 -13 5 -27 0 -33 -5 -5 -9 -18
-9 -28 0 -16 3 -17 15 -7 11 9 19 9 28 2 17 -14 57 -4 57 15 0 10 -6 12 -20 8
-18 -6 -22 -1 -19 21 0 3 -8 12 -18 20 -10 7 -13 14 -7 14 5 0 15 -5 21 -11 5
-5 25 -11 42 -11 28 -1 58 -18 32 -18 -6 0 -11 -4 -11 -10 0 -5 7 -10 15 -10
9 0 15 -9 15 -25 0 -14 5 -24 12 -23 7 2 12 -10 13 -30 1 -25 -3 -31 -16 -27
-9 3 -22 -1 -29 -10 -14 -17 -10 -18 45 -16 l30 1 -25 -11 c-14 -6 -36 -8 -49
-6 -14 3 -35 1 -48 -4 -17 -6 -23 -5 -23 5 0 8 -10 11 -29 8 -23 -3 -31 -11
-36 -33 -6 -24 -12 -29 -37 -29 -21 0 -31 -6 -35 -20 -3 -11 -13 -20 -22 -20
-9 0 -24 -18 -35 -40 -10 -22 -27 -48 -36 -58 -9 -10 -21 -34 -25 -53 -10 -44
-12 -229 -2 -229 4 0 7 -16 7 -35 0 -19 4 -35 9 -35 14 0 26 -153 13 -158 -6
-2 -7 -13 -2 -32 4 -16 5 -32 2 -36 -4 -4 2 -4 13 1 11 4 58 11 105 15 47 4
109 15 138 24 29 9 58 14 64 10 6 -4 8 -3 4 4 -6 11 1 12 59 13 17 1 35 4 40
9 6 4 25 11 43 15 18 3 30 10 27 15 -3 5 1 10 7 13 10 4 11 7 1 18 -11 11 -13
10 -13 -3 0 -25 -17 -31 -23 -8 -3 11 -1 18 4 14 5 -3 9 0 9 5 0 6 -4 11 -10
11 -5 0 -10 5 -10 11 0 7 10 9 25 5 27 -7 32 3 13 22 -17 17 0 28 22 14 16
-10 18 -9 14 3 -4 8 -16 15 -28 15 -11 0 -28 5 -36 11 -13 9 -12 10 3 5 15 -5
18 -1 15 16 -2 14 -11 24 -23 25 l-20 3 20 -9 c18 -9 17 -10 -7 -10 -16 -1
-28 3 -28 8 0 5 -9 11 -21 14 -27 7 -15 27 15 27 13 0 31 8 40 19 16 17 16 19
-6 24 -20 6 -21 8 -8 21 11 11 51 15 168 18 83 2 152 0 152 -4 0 -5 11 -8 24
-8 17 0 29 -9 40 -30 16 -33 2 -42 -20 -12 -13 16 -13 16 -14 -2 0 -20 0 -20
-14 0 -12 15 -17 17 -28 6 -11 -11 -10 -14 2 -22 12 -8 12 -10 -4 -10 -10 0
-25 8 -32 18 -12 15 -12 13 -5 -15 10 -33 6 -43 -16 -43 -7 0 -13 9 -13 19 0
21 -38 54 -52 45 -13 -8 -10 -19 12 -44 11 -13 20 -29 20 -37 0 -16 42 -17 58
-1 8 8 14 5 21 -15 6 -15 15 -27 20 -27 6 0 8 6 6 13 -6 14 39 37 73 37 13 0
21 4 18 9 -3 5 0 14 8 20 10 9 15 8 19 -3 3 -8 1 -17 -6 -20 -7 -2 3 -5 21 -5
17 -1 32 -5 32 -9 0 -5 15 -16 33 -25 25 -12 28 -16 12 -17 -17 -2 -16 -3 5
-9 16 -5 24 -13 22 -24 -3 -20 14 -23 21 -4 2 6 7 9 11 6 4 -4 0 -13 -8 -22
-8 -8 -13 -17 -10 -20 3 -3 -3 -3 -15 0 -12 3 -21 10 -21 15 0 5 -4 6 -10 3
-17 -10 -11 -25 10 -25 14 0 18 -5 13 -17 -5 -14 -4 -16 8 -7 9 6 51 8 119 4
115 -7 271 -3 310 7 14 4 45 8 70 8 25 1 71 7 102 14 31 6 102 13 157 14 90 2
102 4 107 21 10 32 7 127 -5 139 -6 6 -11 37 -11 69 0 56 9 82 38 120 14 16
19 104 8 116 -3 3 0 15 7 26 16 24 30 185 18 200 -5 6 -11 30 -14 53 -5 44 18
98 48 109 8 4 15 11 15 16 0 7 -23 8 -67 3 -38 -4 -84 -8 -103 -8 -53 -1 -182
14 -200 23 -8 4 -43 22 -78 39 -35 18 -75 31 -90 30 -15 -1 -39 3 -55 9 -15 7
-40 14 -55 17 -45 10 -47 10 -58 18 -6 3 -57 13 -113 22 -180 27 -256 51 -308
98 l-23 20 -39 -42z m543 -167 c9 -3 14 -10 11 -14 -3 -5 -1 -11 5 -15 5 -3
10 -2 10 3 0 6 14 7 36 2 20 -5 42 -6 48 -4 8 3 12 -9 11 -36 0 -22 -3 -40 -7
-40 -5 0 -8 9 -8 20 0 11 -3 20 -7 20 -7 0 -8 -29 -4 -73 1 -5 6 -5 11 -2 6 3
10 -2 10 -13 0 -15 -5 -18 -25 -14 -16 3 -33 -2 -44 -12 -16 -14 -19 -15 -24
-3 -3 8 0 20 6 27 9 10 9 11 0 6 -17 -9 -29 42 -16 63 8 12 6 24 -5 44 -9 15
-20 27 -24 27 -4 0 -8 5 -8 10 0 12 3 12 24 4z m-1224 -54 c-11 -7 -11 -10 -2
-10 7 0 10 -5 6 -11 -4 -7 -10 -7 -16 -1 -12 12 -2 32 15 32 7 0 6 -4 -3 -10z
m53 -25 c-3 -9 -8 -14 -10 -11 -3 3 -2 9 2 15 9 16 15 13 8 -4z m487 -95 c8
-5 12 -11 9 -14 -7 -8 -49 5 -49 15 0 12 21 11 40 -1z m1110 -11 c0 -6 -4 -7
-10 -4 -5 3 -10 11 -10 16 0 6 5 7 10 4 6 -3 10 -11 10 -16z m-1230 -19 c0 -7
-80 -2 -89 6 -1 1 0 7 3 12 7 11 86 -6 86 -18z m88 9 c17 -12 20 -18 10 -23
-7 -3 0 -2 16 1 20 4 27 2 22 -5 -5 -8 5 -10 31 -8 53 5 75 16 68 33 -4 12 0
14 22 9 85 -19 94 -19 87 -2 -5 12 -2 15 10 10 9 -3 16 -10 16 -14 0 -5 13
-11 30 -15 16 -4 32 -11 35 -16 4 -5 16 -9 28 -9 20 1 19 4 -13 30 -48 41 -30
37 31 -7 42 -30 48 -38 35 -45 -9 -5 -21 -6 -26 -3 -6 3 -13 -1 -16 -9 -9 -24
-37 -21 -29 3 9 31 -24 36 -35 5 -14 -36 -2 -76 20 -69 23 7 43 -19 38 -50 -5
-24 7 -36 14 -15 2 6 8 6 18 0 13 -9 13 -11 0 -21 -8 -6 -11 -12 -5 -15 36
-16 40 -23 27 -45 -7 -11 -12 -22 -10 -23 2 -2 14 -10 27 -19 32 -22 39 -57
10 -57 -11 0 -17 -4 -14 -10 12 -20 -47 -9 -91 16 -24 14 -44 28 -44 30 0 4
32 -7 45 -16 6 -4 22 -10 38 -14 20 -5 27 -3 27 9 0 8 -4 15 -9 15 -5 0 -11 7
-13 16 -2 10 -14 18 -29 20 -15 1 -38 14 -53 29 -23 23 -24 26 -6 20 11 -3 20
-2 20 3 0 13 -27 23 -45 16 -10 -4 -15 0 -15 11 0 9 -4 14 -8 11 -5 -3 -19 1
-33 7 -73 38 -138 49 -237 41 -53 -4 -107 -8 -119 -8 -11 -1 -19 -4 -17 -8 2
-3 -9 -9 -25 -13 -16 -3 -37 -15 -47 -26 -9 -10 -23 -19 -31 -19 -7 0 -16 -7
-19 -15 -4 -8 -9 -13 -13 -11 -3 2 -15 -13 -25 -35 -19 -39 -45 -55 -80 -50
-18 3 -18 2 -2 -14 26 -26 13 -28 -28 -5 -20 11 -44 20 -52 20 -10 0 -14 6
-11 14 7 17 -18 40 -33 31 -13 -8 -13 11 1 36 7 14 16 18 30 14 21 -7 27 10 7
18 -7 3 -3 6 9 6 16 1 25 9 29 26 4 16 13 25 23 24 49 -4 72 2 69 18 -2 11 4
18 17 20 11 2 43 10 70 18 28 7 67 16 88 20 20 3 37 10 37 15 0 6 -5 9 -11 8
-6 -2 -13 2 -16 8 -2 7 4 11 14 10 11 0 17 5 17 17 -1 13 6 17 35 17 24 0 31
3 22 9 -11 7 -11 10 0 15 11 5 11 7 1 12 -6 3 -10 9 -8 13 8 12 50 7 74 -10z
m-413 -159 c-3 -5 -10 -10 -16 -10 -5 0 -9 5 -9 10 0 6 7 10 16 10 8 0 12 -4
9 -10z m575 -60 c60 -20 69 -28 50 -41 -12 -8 -10 -9 7 -4 12 3 24 1 28 -5 3
-5 0 -10 -7 -11 -7 0 2 -5 21 -11 24 -6 31 -12 22 -18 -14 -8 -49 -3 -66 10
-5 4 -26 11 -45 14 -34 6 -35 6 -12 -10 23 -17 30 -44 11 -44 -17 0 -64 -52
-65 -72 -1 -9 5 -19 14 -23 11 -4 12 -8 2 -20 -18 -22 -89 -19 -125 5 -38 25
-71 25 -87 0 -7 -11 -16 -20 -21 -20 -4 0 -6 4 -2 9 3 5 1 12 -5 16 -6 4 -8
11 -4 16 3 6 -2 18 -13 27 -10 10 -24 28 -31 40 -12 22 -12 23 6 18 16 -6 19
-3 14 19 -6 34 -15 32 -59 -13 -40 -40 -105 -92 -116 -92 -4 0 -7 5 -7 11 0
15 42 59 58 59 6 0 11 5 10 12 -2 6 13 22 32 35 19 13 48 34 65 48 16 14 37
25 47 25 9 0 20 4 23 10 19 31 174 38 255 10z m-170 -244 c0 -3 -4 -8 -10 -11
-5 -3 -10 -1 -10 4 0 6 5 11 10 11 6 0 10 -2 10 -4z m225 -6 c3 -5 -1 -10 -10
-10 -9 0 -13 5 -10 10 3 6 8 10 10 10 2 0 7 -4 10 -10z m-426 -41 c-12 -7 -12
-9 0 -9 8 0 11 -3 8 -6 -4 -4 -14 -1 -22 6 -12 10 -13 15 -3 21 6 4 16 5 21 2
5 -3 3 -9 -4 -14z m666 -239 c3 -6 -1 -7 -9 -4 -18 7 -21 14 -7 14 6 0 13 -4
16 -10z m-718 -6 c-3 -3 -12 -4 -19 -1 -8 3 -5 6 6 6 11 1 17 -2 13 -5z"/>
<path d="M3550 3270 c0 -5 7 -10 15 -10 8 0 15 5 15 10 0 6 -7 10 -15 10 -8 0
-15 -4 -15 -10z"/>
<path d="M3510 3220 c0 -5 5 -10 10 -10 6 0 10 5 10 10 0 6 -4 10 -10 10 -5 0
-10 -4 -10 -10z"/>
<path d="M3595 3200 c-4 -6 3 -10 14 -10 25 0 27 6 6 13 -8 4 -17 2 -20 -3z"/>
<path d="M3675 3200 c-3 -5 -2 -10 4 -10 5 0 13 5 16 10 3 6 2 10 -4 10 -5 0
-13 -4 -16 -10z"/>
<path d="M2845 3080 c-3 -5 1 -10 10 -10 9 0 13 5 10 10 -3 6 -8 10 -10 10 -2
0 -7 -4 -10 -10z"/>
<path d="M3670 3082 c0 -5 7 -13 16 -16 10 -4 14 -1 12 6 -5 15 -28 23 -28 10z"/>
<path d="M3413 3090 c35 -19 53 -45 23 -34 -8 3 -17 1 -21 -5 -4 -7 4 -11 20
-11 30 0 44 26 24 46 -8 7 -30 16 -49 19 l-35 6 38 -21z"/>
<path d="M3210 3050 c0 -5 5 -10 10 -10 6 0 10 5 10 10 0 6 -4 10 -10 10 -5 0
-10 -4 -10 -10z"/>
<path d="M2300 3740 c-9 -6 -10 -10 -3 -10 6 0 13 -8 15 -17 3 -13 6 -10 10
10 6 29 2 32 -22 17z"/>
<path d="M2495 3708 c-12 -25 -21 -35 -23 -26 -4 21 -42 11 -42 -11 -1 -13 -3
-13 -15 3 -13 17 -15 17 -15 4 0 -9 -5 -20 -11 -24 -6 -3 -10 1 -9 12 1 11 1
24 0 29 -1 6 -3 17 -4 25 0 8 -7 15 -15 15 -8 0 -16 -7 -18 -15 -4 -13 -3 -13
6 0 5 8 13 11 17 7 4 -3 1 -13 -5 -21 -8 -10 -9 -16 -2 -21 15 -9 7 -46 -13
-60 -15 -11 -14 -12 9 -12 13 0 22 3 20 7 -3 4 2 11 11 14 8 3 13 2 10 -3 -7
-11 19 -22 28 -13 12 11 115 8 106 -3 -6 -7 -3 -11 8 -12 11 -1 18 6 19 17 1
15 -4 18 -32 15 -33 -3 -53 15 -39 36 9 15 27 10 20 -6 -3 -8 -1 -15 3 -15 5
0 12 6 14 13 4 10 6 10 6 0 1 -7 6 -13 12 -13 5 0 7 5 4 10 -3 6 -1 10 5 10 6
0 8 5 5 10 -4 6 -15 8 -25 5 -17 -5 -18 -2 -13 29 3 20 4 36 2 36 -2 0 -13
-19 -24 -42z m-15 -69 c0 -5 -9 -4 -19 3 -11 7 -17 16 -14 20 5 10 33 -10 33
-23z"/>
<path d="M2640 3720 c0 -6 7 -10 15 -10 8 0 15 2 15 4 0 2 -7 6 -15 10 -8 3
-15 1 -15 -4z"/>
<path d="M2261 3704 c0 -11 3 -14 6 -6 3 7 2 16 -1 19 -3 4 -6 -2 -5 -13z"/>
<path d="M2230 3701 c0 -5 5 -13 10 -16 6 -3 10 -2 10 4 0 5 -4 13 -10 16 -5
3 -10 2 -10 -4z"/>
<path d="M2196 3691 c-4 -7 -5 -15 -2 -18 9 -9 19 4 14 18 -4 11 -6 11 -12 0z"/>
<path d="M1691 3664 c0 -11 3 -14 6 -6 3 7 2 16 -1 19 -3 4 -6 -2 -5 -13z"/>
<path d="M2271 3663 c-1 -16 5 -23 17 -23 10 0 13 3 6 8 -6 4 -14 14 -17 22
-4 10 -6 8 -6 -7z"/>
<path d="M2300 3675 c1 -18 26 -44 37 -37 7 5 6 11 -3 20 -8 7 -14 9 -14 5 0
-4 -5 -1 -10 7 -5 8 -10 11 -10 5z"/>
<path d="M2160 3635 c-10 -12 -10 -15 2 -15 8 0 15 7 15 15 0 8 -1 15 -2 15
-2 0 -8 -7 -15 -15z"/>
<path d="M2665 3620 c-3 -5 -1 -10 4 -10 6 0 11 5 11 10 0 6 -2 10 -4 10 -3 0
-8 -4 -11 -10z"/>
<path d="M2690 3620 c0 -5 5 -10 10 -10 6 0 10 5 10 10 0 6 -4 10 -10 10 -5 0
-10 -4 -10 -10z"/>
<path d="M1746 3571 c-7 -10 42 -21 97 -21 33 0 46 -6 65 -27 l24 -28 -31 -12
c-17 -7 -31 -18 -31 -23 0 -13 -87 -13 -95 0 -3 6 -13 10 -22 10 -9 0 -38 20
-64 45 -47 44 -71 53 -97 36 -11 -7 -11 -9 1 -14 21 -8 15 -38 -11 -55 -20
-13 -22 -13 -22 3 0 11 5 15 15 12 8 -4 17 -2 20 4 4 5 1 8 -7 7 -7 -2 -12 2
-11 8 1 7 -6 10 -17 7 -11 -3 -20 -10 -20 -15 0 -5 -5 -6 -10 -3 -6 4 -8 10
-5 15 3 4 -2 13 -9 19 -20 17 -30 -3 -16 -30 15 -26 9 -32 -24 -23 -18 4 -32
18 -41 40 -15 37 -26 42 -45 19 -10 -12 -10 -18 0 -30 10 -12 10 -15 -3 -15
-8 0 -40 -22 -70 -50 -31 -28 -64 -50 -77 -50 -24 0 -23 -18 3 -34 13 -9 26
-2 64 36 27 26 60 50 76 53 15 4 30 11 33 16 8 14 21 11 28 -7 4 -10 -3 -24
-16 -36 l-23 -19 28 5 c15 3 38 9 52 12 16 4 25 2 25 -6 0 -6 3 -9 8 -6 4 2
17 -1 30 -8 20 -10 14 -12 -40 -10 -37 1 -66 -3 -71 -10 -6 -8 -10 -8 -14 2
-6 16 -20 15 -26 -2 -4 -10 -1 -13 9 -9 33 12 11 -18 -31 -42 -34 -20 -52 -25
-75 -20 -39 9 -39 -7 1 -22 17 -7 33 -21 36 -32 3 -12 9 -19 13 -16 12 8 28
-46 24 -85 -12 -132 -12 -142 13 -186 14 -24 31 -44 39 -44 13 0 14 22 9 148
-7 160 1 198 32 155 16 -24 33 -30 33 -13 0 6 11 22 25 36 14 14 25 28 26 32
0 4 3 16 6 27 3 11 5 30 5 42 0 12 6 24 14 27 8 3 14 19 14 36 0 33 5 36 24
18 45 -44 64 -56 75 -45 7 7 14 7 24 -1 8 -7 16 -9 19 -6 4 3 26 7 50 10 23 2
56 6 71 8 15 1 30 -1 33 -6 11 -18 60 -8 78 17 10 14 25 25 32 25 19 0 43 38
37 61 -3 10 0 26 7 34 17 20 10 26 -42 36 -58 11 -245 11 -252 0z"/>
<path d="M1303 3532 c-15 -5 -20 -11 -14 -20 6 -10 13 -11 34 -1 15 7 24 16
21 20 -6 10 -9 10 -41 1z"/>
<path d="M1063 3498 c-13 -6 -23 -15 -23 -19 0 -10 62 -41 68 -34 3 3 0 5 -7
5 -7 0 -9 5 -6 11 11 17 18 3 21 -43 2 -24 1 -37 -2 -30 -3 6 -12 12 -20 12
-13 0 -14 -28 -5 -103 1 -5 5 -6 10 -3 14 9 22 -66 8 -83 -10 -12 -9 -14 5 -8
9 3 19 1 22 -6 2 -7 5 -1 6 13 l1 25 10 -23 c12 -32 25 -21 39 37 17 74 10
160 -17 196 -52 70 -64 75 -110 53z"/>
<path d="M2700 3430 c0 -5 5 -10 11 -10 5 0 7 5 4 10 -3 6 -8 10 -11 10 -2 0
-4 -4 -4 -10z"/>
<path d="M2870 3400 c0 -5 5 -10 10 -10 6 0 10 5 10 10 0 6 -4 10 -10 10 -5 0
-10 -4 -10 -10z"/>
<path d="M2866 3361 c-4 -7 -5 -15 -2 -18 9 -9 19 4 14 18 -4 11 -6 11 -12 0z"/>
<path d="M2960 3300 c0 -5 14 -10 31 -10 17 0 28 4 24 10 -3 6 -17 10 -31 10
-13 0 -24 -4 -24 -10z"/>
<path d="M1057 3183 c-12 -12 -7 -22 8 -17 8 4 15 10 15 15 0 11 -14 12 -23 2z"/>
<path d="M1101 3142 c-3 -66 0 -161 7 -202 6 -37 12 -45 30 -46 12 -1 37 -13
56 -28 30 -22 41 -25 80 -20 25 4 46 8 46 9 0 2 -15 30 -34 63 -23 41 -33 69
-30 90 2 20 -2 32 -11 36 -18 6 -19 1 -4 -26 6 -11 8 -22 6 -25 -10 -9 -61 81
-73 127 -10 39 -15 45 -41 47 -26 2 -30 -1 -32 -25z m36 -204 c-3 -8 -6 -5 -6
6 -1 11 2 17 5 13 3 -3 4 -12 1 -19z"/>
<path d="M1028 3043 c-22 -5 -33 -40 -19 -57 6 -7 12 -21 14 -32 9 -47 66
-170 88 -190 34 -31 31 -7 -5 45 -36 54 -47 97 -43 185 2 49 -4 57 -35 49z"/>
<path d="M1950 3026 c-6 -8 -21 -17 -33 -19 -12 -2 7 -2 43 1 44 3 84 -1 124
-13 33 -10 84 -18 113 -19 30 -1 57 -7 61 -13 4 -6 17 -13 29 -17 12 -4 36
-23 52 -42 29 -33 31 -33 31 -11 0 39 -66 94 -149 122 -89 30 -249 36 -271 11z"/>
<path d="M2225 2919 c-4 -5 -3 -22 1 -37 9 -34 6 -53 -13 -74 -15 -17 -14 -18
5 -18 12 0 44 5 72 11 40 9 51 15 56 35 3 13 4 30 1 38 -11 29 -110 65 -122
45z"/>
<path d="M887 2852 c-9 -21 -17 -53 -17 -70 0 -27 4 -32 24 -32 14 0 28 -5 31
-10 4 -6 16 -8 28 -4 12 3 19 3 15 -1 -8 -9 9 -35 23 -35 5 0 -1 16 -12 35
-22 37 -34 43 -43 23 -3 -9 -9 -8 -20 6 -14 17 -13 20 4 35 17 14 18 20 7 54
-6 20 -14 37 -18 37 -3 0 -13 -17 -22 -38z"/>
<path d="M1375 2857 l-49 -12 29 -13 c22 -10 30 -10 36 -1 4 6 16 9 28 6 26
-6 49 18 25 27 -8 3 -16 6 -17 5 -1 0 -24 -6 -52 -12z"/>
<path d="M3450 2840 c-13 -8 -13 -10 2 -10 9 0 20 5 23 10 8 13 -5 13 -25 0z"/>
<path d="M1790 2812 c0 -5 7 -17 15 -28 14 -18 14 -18 15 9 0 17 -5 27 -15 27
-8 0 -15 -4 -15 -8z"/>
<path d="M1302 2800 c-12 -5 -28 -7 -35 -4 -8 3 -23 -19 -42 -58 -16 -35 -29
-65 -30 -68 0 -3 -4 -10 -8 -17 -9 -13 8 -26 39 -29 14 -2 25 5 32 19 9 18 11
19 11 5 1 -12 9 -18 26 -18 14 0 25 -4 25 -9 0 -5 16 -12 35 -15 19 -4 35 -11
35 -16 0 -6 8 -10 18 -10 10 0 35 -16 55 -37 l37 -36 1 29 c3 54 -1 199 -7
233 -5 31 -7 33 -37 27 -48 -9 -79 -36 -107 -92 -17 -34 -26 -43 -28 -31 -3
13 -9 16 -23 12 -40 -13 -12 78 33 109 25 18 8 21 -30 6z"/>
<path d="M3133 2763 c9 -2 23 -2 30 0 6 3 -1 5 -18 5 -16 0 -22 -2 -12 -5z"/>
<path d="M3545 2710 c-7 -12 2 -30 16 -30 12 0 12 27 0 35 -5 3 -12 1 -16 -5z"/>
<path d="M3294 2698 c-13 -21 -15 -68 -2 -68 6 0 9 3 6 6 -4 3 3 15 13 25 21
21 21 40 2 46 -6 2 -15 -2 -19 -9z"/>
<path d="M3245 2620 c-8 -13 3 -30 18 -29 9 0 9 2 0 5 -7 3 -9 12 -6 20 6 16
-3 19 -12 4z"/>
<path d="M4456 2603 c-3 -4 -26 -5 -51 -5 -27 1 -59 -5 -78 -15 -18 -9 -57
-18 -87 -19 -345 -11 -478 -17 -491 -25 -9 -4 -96 -8 -195 -7 -203 1 -347 -10
-337 -25 3 -6 1 -7 -6 -3 -14 9 -73 -3 -66 -13 2 -5 -7 -6 -21 -3 -26 5 -99
-9 -184 -33 -46 -14 -134 -31 -230 -44 -73 -10 -121 -31 -115 -51 7 -22 -10
-44 -29 -37 -10 4 -16 1 -16 -8 0 -8 -4 -15 -10 -15 -5 0 -10 5 -10 10 0 6 -4
10 -10 10 -5 0 -10 -9 -10 -19 0 -11 -3 -22 -8 -24 -10 -7 -53 29 -45 37 4 3
1 6 -5 6 -7 0 -12 6 -12 14 0 9 -7 12 -20 9 -11 -3 -17 -9 -14 -14 3 -5 -5 -5
-18 0 -72 29 -108 36 -108 22 0 -6 -14 -18 -31 -27 l-32 -16 6 41 5 41 -46 0
c-27 0 -42 -4 -35 -8 9 -5 1 -12 -22 -21 -19 -6 -44 -25 -55 -42 -12 -16 -30
-29 -41 -29 -10 0 -19 -6 -19 -13 0 -8 -9 -24 -20 -37 -11 -13 -20 -27 -20
-32 0 -5 -5 -6 -10 -3 -6 3 -10 -5 -10 -19 0 -29 -17 -44 -22 -19 -2 13 -9 8
-26 -20 -24 -42 -28 -57 -10 -39 18 18 23 15 25 -19 2 -30 2 -31 -17 -14 -18
16 -19 16 -23 -12 -3 -24 -4 -23 -6 9 0 20 -6 40 -12 44 -7 4 -10 1 -7 -7 4
-13 -14 -39 -27 -39 -4 0 -4 12 0 27 l7 28 -27 -29 c-20 -22 -23 -31 -14 -42
9 -11 8 -18 -1 -29 -7 -9 -10 -18 -7 -21 9 -10 27 34 21 50 -11 28 10 17 28
-14 14 -25 15 -30 3 -30 -9 0 -15 -9 -15 -21 0 -18 2 -19 15 -9 8 7 15 8 15 2
0 -5 -7 -15 -15 -22 -17 -14 -21 -45 -5 -35 6 3 10 2 10 -3 0 -5 -14 -15 -30
-22 -29 -12 -44 -38 -15 -27 8 4 17 2 20 -3 4 -6 1 -10 -5 -10 -6 0 -9 -8 -6
-18 7 -20 -15 -49 -51 -69 -29 -16 -36 -5 -17 25 16 24 15 25 -1 18 -11 -4
-22 -1 -28 6 -6 9 -7 8 -3 -4 3 -11 0 -18 -8 -18 -21 0 -26 11 -13 31 12 20 2
38 -13 23 -8 -8 -16 -37 -19 -66 -1 -5 -5 -8 -10 -8 -16 0 -22 36 -12 63 9 22
8 24 -12 19 -19 -5 -20 -3 -9 10 7 9 9 23 6 32 -6 15 -8 15 -20 -1 -13 -17
-13 -17 -14 2 0 11 -9 26 -20 33 -18 11 -20 10 -20 -8 0 -11 -4 -20 -9 -20
-13 0 -22 32 -22 72 -1 35 -11 69 -40 133 -10 23 -26 90 -36 150 -16 101 -18
107 -26 75 -11 -39 -19 -238 -19 -455 0 -101 5 -157 17 -200 42 -151 65 -248
60 -253 -3 -3 -5 0 -5 6 0 7 -4 12 -10 12 -5 0 4 -25 20 -55 29 -54 40 -102
20 -90 -5 3 -10 1 -10 -4 0 -6 6 -11 14 -11 23 0 30 -52 9 -68 -13 -11 -14
-13 -2 -9 12 4 14 -1 11 -23 -3 -19 1 -29 13 -34 13 -4 16 -2 11 9 -3 8 -1 15
4 15 4 0 11 -14 15 -31 4 -17 13 -33 21 -36 17 -6 19 -59 2 -69 -8 -5 -9 -2
-5 9 4 11 1 17 -8 17 -21 0 -18 -37 3 -49 13 -7 23 -6 30 1 16 16 16 -15 1
-44 -13 -24 -5 -35 15 -19 12 10 15 5 19 -31 5 -51 14 -88 27 -124 6 -14 7
-30 4 -36 -4 -7 -2 -8 5 -4 7 5 17 -6 27 -29 15 -36 14 -38 -7 -61 -12 -13
-28 -24 -35 -24 -7 0 -14 -4 -16 -8 -1 -5 -32 -25 -69 -45 -36 -20 -76 -48
-89 -62 -13 -14 -28 -25 -33 -25 -5 0 -18 -11 -29 -25 -20 -25 -94 -64 -159
-83 -55 -17 -153 -53 -164 -62 -5 -4 -55 -26 -110 -49 -55 -24 -115 -49 -133
-57 -18 -8 -41 -14 -50 -14 -10 0 -23 -5 -29 -11 -7 -7 -101 -56 -210 -110
l-198 -98 2620 0 2620 0 -55 29 c-30 16 -65 29 -77 30 -12 0 -37 13 -55 28
-39 32 -113 72 -183 98 -27 10 -63 27 -80 39 -16 12 -41 26 -55 32 -58 25 -82
33 -95 33 -13 0 -40 16 -181 110 -26 17 -62 30 -98 34 -46 6 -65 15 -94 41
-57 53 -141 117 -209 160 -46 30 -63 47 -67 69 -7 32 8 100 29 131 22 36 34
180 21 270 -11 76 -43 175 -57 175 -5 0 -9 14 -9 30 0 33 26 43 32 13 2 -14 7
-11 21 11 21 31 16 46 -8 26 -15 -12 -20 -4 -16 23 0 4 -5 7 -13 7 -30 0 -25
112 6 131 10 7 10 11 0 21 -14 14 -17 42 -3 34 13 -9 21 48 8 57 -8 5 -5 13
11 24 12 8 22 23 22 31 0 13 -3 12 -14 -4 -14 -18 -15 -18 -22 0 -5 12 -2 21
9 28 21 11 22 48 2 48 -8 0 -15 5 -15 10 0 6 7 10 15 10 8 0 15 6 15 13 0 7
15 28 34 46 138 134 223 453 189 706 l-8 60 -71 2 c-40 1 -75 -1 -78 -4z
m-1206 -118 c0 -8 -4 -15 -10 -15 -5 0 -7 7 -4 15 4 8 8 15 10 15 2 0 4 -7 4
-15z m55 6 c3 -5 1 -12 -4 -15 -5 -3 -11 1 -15 9 -6 16 9 21 19 6z m-101 -29
c3 -5 -1 -9 -9 -9 -8 0 -15 4 -15 9 0 4 4 8 9 8 6 0 12 -4 15 -8z m93 -28 c2
-10 0 -14 -3 -7 -3 7 -12 9 -20 6 -14 -5 -19 8 -7 21 11 11 28 1 30 -20z m57
13 c7 -7 11 -17 9 -24 -3 -7 6 -10 21 -9 17 2 26 -2 26 -10 0 -8 -4 -14 -10
-14 -5 0 -10 -4 -10 -9 0 -4 13 -7 29 -5 27 3 28 2 17 -21 -14 -31 -30 -33
-21 -3 6 16 4 20 -8 15 -8 -3 -23 3 -32 13 -10 11 -21 17 -25 15 -4 -3 -10 11
-12 30 -4 38 -3 41 16 22z m60 -2 c-4 -8 -8 -15 -10 -15 -2 0 -4 7 -4 15 0 8
4 15 10 15 5 0 7 -7 4 -15z m64 -16 c-3 -8 -7 -3 -11 10 -4 17 -3 21 5 13 5
-5 8 -16 6 -23z m-198 -29 c0 -5 -9 -6 -20 -3 -11 3 -20 9 -20 13 0 5 9 6 20
3 11 -3 20 -9 20 -13z m44 -16 c9 -23 7 -34 -5 -34 -5 0 -7 5 -4 10 3 6 1 10
-4 10 -6 0 -11 7 -11 15 0 20 16 19 24 -1z m146 -52 c0 -15 -2 -15 -10 -2 -8
13 -10 12 -10 -2 0 -10 -4 -18 -10 -18 -13 0 -13 6 2 29 14 22 28 18 28 -7z
m-2057 -97 c4 -8 2 -17 -3 -20 -6 -4 -10 3 -10 14 0 25 6 27 13 6z m774 -7
c-3 -8 -6 -5 -6 6 -1 11 2 17 5 13 3 -3 4 -12 1 -19z m-315 -205 c6 -7 7 -13
3 -13 -16 0 -32 34 -26 54 5 19 6 19 9 -4 2 -14 9 -31 14 -37z m-302 -132 c0
-19 -17 -38 -25 -29 -7 7 7 48 16 48 5 0 9 -9 9 -19z m1089 -75 c12 -14 35
-125 28 -132 -11 -11 -122 -11 -129 -1 -13 21 -9 135 5 140 25 11 85 6 96 -7z
m185 1 c19 -14 39 -104 26 -112 -4 -3 -33 -8 -65 -11 -43 -5 -59 -4 -65 7 -8
12 -4 84 6 117 5 16 75 16 98 -1z m-335 -11 c19 -22 25 -84 11 -101 -17 -21
-36 -19 -59 6 l-19 21 -11 -21 c-21 -38 -38 -21 -57 53 -5 22 -3 23 39 19 38
-4 45 -1 50 16 6 24 29 27 46 7z m438 -6 c3 -11 9 -20 13 -20 5 0 2 -13 -6
-30 -17 -33 -24 -36 -42 -18 -13 13 -16 47 -6 72 9 23 35 20 41 -4z m1423 -60
c0 -5 -5 -10 -11 -10 -5 0 -7 5 -4 10 3 6 8 10 11 10 2 0 4 -4 4 -10z m-2083
-212 c-3 -8 -6 -5 -6 6 -1 11 2 17 5 13 3 -3 4 -12 1 -19z m64 10 c0 -10 2
-10 6 0 6 16 18 15 37 -4 9 -8 16 -11 16 -5 0 6 7 11 15 11 8 0 15 -7 15 -15
0 -8 6 -12 13 -9 8 3 20 -2 27 -11 14 -17 30 -20 30 -5 0 6 -7 10 -15 10 -8 0
-15 5 -15 10 0 6 3 10 8 10 10 -1 48 -30 38 -30 -5 0 -3 -7 4 -15 15 -18 34
-20 24 -2 -5 9 -4 9 5 1 18 -16 2 -47 -21 -41 -10 3 -32 -2 -49 -11 -26 -15
-31 -15 -39 -2 -6 10 -10 11 -10 3 0 -7 -11 -13 -24 -13 -14 0 -27 -4 -31 -10
-3 -5 -13 -6 -22 -3 -11 4 -14 3 -9 -5 4 -7 1 -12 -8 -12 -9 0 -16 -5 -16 -11
0 -6 -7 -9 -15 -5 -10 4 -15 -1 -15 -14 0 -11 -5 -20 -11 -20 -6 0 -8 7 -5 16
9 22 -3 61 -14 44 -5 -8 -9 -5 -13 9 -4 15 0 21 11 21 16 1 16 2 0 13 -10 8
-13 18 -8 26 6 10 10 9 19 -5 9 -16 10 -13 5 16 -4 26 -3 31 5 20 9 -13 11
-12 11 5 0 15 3 17 9 7 7 -11 9 -11 14 2 4 9 2 16 -3 16 -6 0 -10 5 -10 10 0
15 40 12 41 -2z m-110 -55 c-8 -15 -10 -15 -11 -2 0 17 10 32 18 25 2 -3 -1
-13 -7 -23z m-54 -5 c-3 -8 -6 -5 -6 6 -1 11 2 17 5 13 3 -3 4 -12 1 -19z
m428 12 c-3 -5 2 -10 12 -10 15 0 15 -2 4 -9 -10 -7 -19 -4 -28 7 -11 16 -12
15 -13 -3 0 -16 -2 -17 -9 -5 -12 18 -5 30 20 30 11 0 17 -4 14 -10z m75 -20
c0 -5 -5 -10 -11 -10 -5 0 -7 5 -4 10 3 6 8 10 11 10 2 0 4 -4 4 -10z m-477
-19 c-3 -12 2 -20 16 -24 12 -3 21 -12 21 -21 0 -21 -1 -21 -38 12 -24 22 -29
31 -20 40 18 18 27 15 21 -7z"/>
<path d="M2435 1750 c3 -5 8 -10 11 -10 2 0 4 5 4 10 0 6 -5 10 -11 10 -5 0
-7 -4 -4 -10z"/>
<path d="M2306 1482 c-9 -14 9 -29 26 -23 17 6 16 7 -2 18 -10 7 -21 9 -24 5z"/>
<path d="M2455 1450 c3 -5 8 -10 11 -10 2 0 4 5 4 10 0 6 -5 10 -11 10 -5 0
-7 -4 -4 -10z"/>
<path d="M2308 1419 c-25 -14 -22 -26 4 -25 13 1 24 9 26 19 4 19 -5 21 -30 6z"/>
<path d="M1400 2411 c0 -17 5 -31 10 -31 6 0 10 11 10 24 0 14 -4 28 -10 31
-6 4 -10 -7 -10 -24z"/>
<path d="M2067 2356 c-4 -10 -1 -13 9 -9 15 6 19 23 5 23 -5 0 -11 -7 -14 -14z"/>
<path d="M2020 2319 c0 -10 27 -19 34 -12 11 12 6 19 -14 19 -11 0 -20 -3 -20
-7z"/>
<path d="M1858 2133 c7 -3 16 -2 19 1 4 3 -2 6 -13 5 -11 0 -14 -3 -6 -6z"/>
<path d="M1540 1990 c-6 -12 -9 -24 -7 -27 3 -2 11 5 17 17 6 12 9 24 7 27 -3
2 -11 -5 -17 -17z"/>
<path d="M1781 1914 c0 -11 3 -14 6 -6 3 7 2 16 -1 19 -3 4 -6 -2 -5 -13z"/>
<path d="M1757 1853 c-13 -12 -7 -23 13 -23 13 0 18 5 14 15 -7 16 -17 19 -27
8z"/>
<path d="M4370 1449 c0 -5 -4 -7 -10 -4 -5 3 -10 1 -10 -4 0 -6 7 -11 15 -11
8 0 15 7 15 15 0 8 -2 15 -5 15 -3 0 -5 -5 -5 -11z"/>
<path d="M4376 1412 c-3 -6 -1 -14 5 -17 14 -9 20 -2 10 14 -6 8 -11 9 -15 3z"/>
</g>
</svg>
