<svg width="256" height="256" viewBox="0 0 256 256" fill="none" xmlns="http://www.w3.org/2000/svg">
    <path
        d="M256 128C256 198.692 198.692 256 128 256C95.7658 256 66.3145 244.085 43.8103 224.419L119.867 148.362V186.18H136.158V147.663L163.75 175.255L175.269 163.735L147.677 136.144H186.194V119.853H148.376L175.254 92.9745L163.735 81.4551L136.158 109.032V69.8164H119.867V108.333L92.9875 81.4539L81.4681 92.9734L108.348 119.853H69.8306V136.144H109.046L32.2459 212.944C12.1839 190.346 0 160.596 0 128C0 57.3076 57.3076 0 128 0C198.692 0 256 57.3076 256 128Z"
        fill="#663399" />
</svg>
