<svg width="600" height="600" viewBox="0 0 600 600" fill="none" xmlns="http://www.w3.org/2000/svg">
    <rect width="600" height="600" fill="black" />
    <path
        d="M300 287.563C246.428 287.563 203 254.666 203 299.063C203 352.635 246.428 396.063 300 396.063C353.572 396.063 397 355.809 397 304.738C397 266.662 372.862 275.814 338.378 282.937M300 287.563C279.013 287.563 262 283.066 262 299.063C262 320.05 279.013 337.063 300 337.063C320.987 337.063 338 320.05 338 299.063C338.354 282.942 320.987 287.563 300 287.563ZM300 287.563C313.632 287.563 326.608 285.368 338.378 282.937M215.407 268.98C177.659 256.202 153 249.369 153 299.063C153 380.249 218.814 446.063 300 446.063C381.186 446.063 447 380.249 447 299.063C447 231.155 400.953 268.805 338.378 282.937M215.407 268.98C151.437 246.022 100 218.808 100 296.53C100 406.987 189.543 500.063 300 500.063C410.457 500.063 500 409.519 500 299.062C500 228.01 457.013 243.601 400.761 263.773M215.407 268.98C230.143 273.968 246.873 279.862 264.91 283.653"
        stroke="white" stroke-width="8" />
</svg>
