<svg width="64" height="64" viewBox="0 0 64 64" fill="none" xmlns="http://www.w3.org/2000/svg">
    <path
        d="M42.6667 42.6667C42.6667 54.4487 33.1154 64 21.3333 64C9.55126 64 0 54.4487 0 42.6667C0 30.8846 9.55126 21.3333 21.3333 21.3333C33.1154 21.3333 42.6667 30.8846 42.6667 42.6667Z"
        fill="#767676" />
    <path
        d="M64 64C58.342 64 52.9158 61.7524 48.9151 57.7516C44.9143 53.7508 42.6667 48.3246 42.6667 42.6667C42.6667 37.0087 44.9143 31.5825 48.9151 27.5817C52.9158 23.5809 58.342 21.3333 64 21.3333V64Z"
        fill="#767676" />
    <path
        d="M64 21.3333C61.1985 21.3333 58.4244 20.7815 55.8361 19.7094C53.2478 18.6373 50.896 17.0659 48.9151 15.0849C46.9341 13.104 45.3627 10.7522 44.2906 8.16391C43.2185 5.57563 42.6667 2.80153 42.6667 0L64 1.86502e-06V21.3333Z"
        fill="#767676" />
    <path
        d="M42.6667 0C42.6667 2.80153 42.1149 5.57564 41.0428 8.16392C39.9707 10.7522 38.3993 13.104 36.4183 15.0849C34.4373 17.0659 32.0855 18.6373 29.4972 19.7094C26.909 20.7815 24.1349 21.3333 21.3333 21.3333C18.5318 21.3333 15.7577 20.7815 13.1694 19.7094C10.5811 18.6373 8.22937 17.0659 6.24839 15.0849C4.2674 13.104 2.696 10.7522 1.6239 8.16391C0.551802 5.57564 -2.44916e-07 2.80153 0 9.32509e-07L42.6667 0Z"
        fill="#767676" />
</svg>
